<?xml version="1.0" standalone="no"?>
<!DOCTYPE svg PUBLIC "-//W3C//DTD SVG 20010904//EN"
 "http://www.w3.org/TR/2001/REC-SVG-20010904/DTD/svg10.dtd">
<svg version="1.0" xmlns="http://www.w3.org/2000/svg"
 width="1181.000000pt" height="1181.000000pt" viewBox="0 0 1181.000000 1181.000000"
 preserveAspectRatio="xMidYMid meet">
<metadata>
Created by potrace 1.11, written by Peter Selinger 2001-2013
</metadata>
<g transform="translate(0.000000,1181.000000) scale(0.100000,-0.100000)"
fill="#000000" stroke="none">
<path d="M5500 11799 c-930 -67 -1841 -352 -2625 -822 -1074 -644 -1927 -1624
-2411 -2769 -436 -1036 -570 -2180 -383 -3288 245 -1452 1017 -2748 2184
-3668 930 -732 2048 -1158 3264 -1243 212 -15 753 -6 956 16 1318 140 2479
663 3435 1547 69 63 134 125 144 137 l20 22 -209 209 -209 209 -75 -72 c-752
-715 -1645 -1182 -2641 -1381 -360 -72 -651 -100 -1045 -100 -394 0 -685 28
-1045 100 -1376 275 -2580 1080 -3369 2254 -1053 1566 -1190 3600 -355 5295
358 729 873 1358 1529 1870 246 192 596 410 900 559 1109 546 2394 686 3600
391 896 -218 1678 -641 2372 -1283 l130 -120 209 210 209 209 -90 86 c-1023
975 -2294 1534 -3710 1633 -163 11 -619 11 -785 -1z"/>
<path d="M5555 10619 c-1365 -102 -2623 -795 -3441 -1894 -173 -233 -291 -424
-423 -685 -263 -519 -417 -1040 -488 -1645 -25 -212 -25 -768 0 -980 52 -447
149 -844 302 -1235 426 -1091 1257 -1996 2309 -2514 556 -273 1130 -428 1766
-477 194 -15 645 -6 830 15 1109 130 2063 588 2835 1361 784 783 1242 1750
1367 2885 17 155 17 747 0 905 -104 958 -446 1795 -1027 2516 -828 1025 -2028
1652 -3350 1749 -161 11 -518 11 -680 -1z m2360 -1506 c34 -11 65 -32 100 -67
93 -93 85 98 85 -1995 0 -1834 -1 -1846 -21 -1891 -62 -138 -227 -211 -374
-165 -74 24 -153 95 -186 167 l-24 53 0 1845 0 1845 21 46 c43 93 118 155 214
176 61 13 111 9 185 -14z m-1584 -3649 c60 -28 119 -87 150 -150 36 -74 34
-188 -4 -266 -16 -32 -48 -75 -73 -97 -85 -75 -26 -71 -1089 -71 -1063 0
-1004 -4 -1089 71 -25 22 -57 65 -73 97 -37 75 -40 191 -6 264 29 63 102 132
166 157 51 20 71 20 1012 18 959 -2 960 -2 1006 -23z m-523 -1399 c49 -22 118
-87 503 -473 508 -509 494 -491 494 -637 0 -73 -5 -100 -23 -140 -29 -63 -73
-109 -137 -143 -45 -24 -61 -27 -150 -27 -89 0 -105 3 -150 27 -36 19 -178
155 -497 475 -483 484 -485 486 -495 602 -7 78 12 162 51 218 36 53 115 107
180 122 64 16 160 5 224 -24z m-958 -246 c60 -27 124 -91 151 -153 34 -77 33
-183 -4 -258 -15 -31 -44 -71 -63 -88 -20 -17 -320 -173 -667 -347 -601 -300
-635 -316 -698 -321 -90 -6 -163 16 -223 69 -122 108 -140 292 -41 422 35 45
63 61 677 368 352 176 659 324 682 329 55 11 131 2 186 -21z"/>
<path d="M10616 8951 c-152 -152 -207 -214 -203 -225 4 -9 36 -66 72 -127 353
-595 596 -1298 684 -1979 37 -283 45 -412 45 -715 0 -606 -81 -1112 -269
-1681 -110 -333 -274 -697 -449 -995 -47 -81 -86 -151 -86 -155 0 -5 95 -104
210 -219 l211 -210 19 25 c11 14 66 104 124 200 453 757 714 1549 813 2465 22
204 25 878 5 1085 -93 949 -376 1805 -855 2582 -52 84 -98 153 -103 155 -5 2
-103 -91 -218 -206z"/>
</g>
</svg>
